<?xml version="1.0" encoding="UTF-8"?>
<svg version="1.1" xmlns="http://www.w3.org/2000/svg" width="512" height="512">
<path d="M0 0 C0.72990646 -0.00974854 1.45981293 -0.01949707 2.21183777 -0.02954102 C24.6254222 -0.26716657 44.96410076 1.71487006 66.21484375 9.23828125 C67.83519531 9.78935547 67.83519531 9.78935547 69.48828125 10.3515625 C108.90859441 24.51367501 140.45792794 55.30244604 159.21484375 92.23828125 C159.715 93.21023437 160.21515625 94.1821875 160.73046875 95.18359375 C175.96120883 126.70544189 180.57039888 167.16293107 172.21484375 201.23828125 C171.91682861 202.48424072 171.91682861 202.48424072 171.61279297 203.75537109 C165.90023752 226.98642991 155.36205687 247.40413173 141.9921875 267.09765625 C138.762255 271.87528911 135.67677321 276.74247603 132.58984375 281.61328125 C132.00460937 282.5360083 131.419375 283.45873535 130.81640625 284.40942383 C129.5898807 286.34334469 128.36348411 288.27734735 127.13720703 290.21142578 C123.77916556 295.49882712 120.40386439 300.77516779 117.02734375 306.05078125 C116.34865234 307.11127686 115.66996094 308.17177246 114.97070312 309.2644043 C110.76609429 315.82925334 106.54015709 322.37977098 102.29614258 328.91918945 C98.56895279 334.67104272 94.88970839 340.45289256 91.21484375 346.23828125 C87.1151711 352.69245087 83.00238691 359.13696262 78.83984375 365.55078125 C71.57615551 376.74440466 64.40189545 387.99536897 57.21484375 399.23828125 C38.30386161 428.82127607 38.30386161 428.82127607 31.39355469 439.421875 C30.23373574 441.20916848 29.08677474 443.00420325 27.94140625 444.80078125 C26.90113281 446.40953125 26.90113281 446.40953125 25.83984375 448.05078125 C25.25460937 448.96472656 24.669375 449.87867188 24.06640625 450.8203125 C21.29194387 454.44350283 18.55607872 456.79120293 14.21484375 458.23828125 C8.62332103 458.60493848 4.94433 458.55898436 0.21484375 455.23828125 C-5.59632812 449.1819731 -9.7522969 441.64015048 -14.12890625 434.52734375 C-16.70365928 430.34904968 -19.35769787 426.22629438 -22.03515625 422.11328125 C-26.21723644 415.67771038 -30.35689431 409.21646399 -34.47265625 402.73828125 C-44.49067501 386.97347052 -54.53532695 371.22562202 -64.70385742 355.55737305 C-69.04269801 348.86161141 -73.31667051 342.12489706 -77.59423828 335.38989258 C-81.13269615 329.82275114 -84.69277367 324.27076361 -88.28515625 318.73828125 C-93.10251179 311.31926783 -97.85129581 303.8576857 -102.59375 296.390625 C-106.13240528 290.82324394 -109.69371237 285.2717306 -113.28515625 279.73828125 C-114.16682604 278.37510307 -115.04833344 277.01181984 -115.9296875 275.6484375 C-117.44469905 273.30509756 -118.96384806 270.96468981 -120.48974609 268.62841797 C-127.99089867 257.13448761 -135.08024382 245.7328191 -140.78515625 233.23828125 C-141.32527344 232.09617188 -141.86539063 230.9540625 -142.421875 229.77734375 C-146.62583633 220.52227523 -149.42121494 211.09449556 -151.78515625 201.23828125 C-151.95176758 200.58569336 -152.11837891 199.93310547 -152.29003906 199.26074219 C-158.01629837 176.1304484 -156.71441699 148.15734051 -150.78515625 125.23828125 C-150.59791992 124.48111816 -150.41068359 123.72395508 -150.21777344 122.94384766 C-147.52264162 112.22616024 -143.59438161 102.17601665 -138.78515625 92.23828125 C-138.47707031 91.60148437 -138.16898438 90.9646875 -137.8515625 90.30859375 C-131.5227589 77.44090179 -123.65467674 65.96197629 -113.86328125 55.46875 C-111.95488734 53.42045503 -110.14890899 51.31792528 -108.34765625 49.17578125 C-82.73527058 20.07079753 -38.6726223 0.42973708 0 0 Z M-43.78515625 114.23828125 C-44.378125 114.81449219 -44.97109375 115.39070313 -45.58203125 115.984375 C-59.31365877 130.06195437 -64.07734707 148.69179741 -64.02734375 167.78369141 C-63.77575353 186.88882355 -56.31765644 202.87426788 -43.41015625 216.80078125 C-42.54390625 217.60515625 -41.67765625 218.40953125 -40.78515625 219.23828125 C-40.20894531 219.83125 -39.63273437 220.42421875 -39.0390625 221.03515625 C-24.96148313 234.76678377 -6.33164009 239.53047207 12.76025391 239.48046875 C31.86538605 239.22887853 47.85083038 231.77078144 61.77734375 218.86328125 C62.58171875 217.99703125 63.38609375 217.13078125 64.21484375 216.23828125 C64.8078125 215.66207031 65.40078125 215.08585937 66.01171875 214.4921875 C79.74334627 200.41460813 84.50703457 181.78476509 84.45703125 162.69287109 C84.20544103 143.58773895 76.74734394 127.60229462 63.83984375 113.67578125 C62.97359375 112.87140625 62.10734375 112.06703125 61.21484375 111.23828125 C60.63863281 110.6453125 60.06242187 110.05234375 59.46875 109.44140625 C45.39117063 95.70977873 26.76132759 90.94609043 7.66943359 90.99609375 C-12.31015877 91.25919949 -30.15705307 99.56186244 -43.78515625 114.23828125 Z " fill="white" transform="translate(245.78515625,-0.23828125)"/>
<path d="M0 0 C1.55541992 2.01171875 1.55541992 2.01171875 3.23046875 4.6875 C3.86017578 5.68330078 4.48988281 6.67910156 5.13867188 7.70507812 C6.1528418 9.33606445 6.1528418 9.33606445 7.1875 11 C7.90210433 12.1353266 8.61761384 13.2700839 9.33398438 14.40429688 C10.82302731 16.76342751 12.30812549 19.12497241 13.79052734 21.48828125 C17.15735919 26.84871186 20.58136634 32.17252331 24 37.5 C25.32711021 39.57273275 26.65393177 41.64565034 27.98046875 43.71875 C28.63966309 44.74871094 29.29885742 45.77867187 29.97802734 46.83984375 C32.04468569 50.06983961 34.11033887 53.30047647 36.17578125 56.53125 C42.39655303 66.2598824 48.61941696 75.986457 54.91259766 85.66845703 C58.09422357 90.57271804 61.22128006 95.50999857 64.34057617 100.45410156 C80.05962429 125.5357789 80.05962429 125.5357789 105.953125 138.45703125 C119.1693303 140.81222681 131.20712891 138.06562381 142.8046875 131.5390625 C149.07564845 127.14269486 153.46069836 122.45523549 157.5625 116 C158.07006836 115.22019775 158.57763672 114.44039551 159.10058594 113.63696289 C160.74650805 111.09929118 162.37481288 108.55099327 164 106 C164.54575684 105.14776855 165.09151367 104.29553711 165.65380859 103.41748047 C168.54932715 98.89519002 171.43177931 94.36481019 174.3046875 89.828125 C178.14239894 83.76901244 182.0064926 77.72698364 185.875 71.6875 C186.54241211 70.6452124 187.20982422 69.6029248 187.89746094 68.52905273 C189.25414015 66.4104231 190.61091124 64.29185229 191.96777344 62.17333984 C194.6482741 57.98771423 197.32756654 53.80131616 200.0065918 49.61474609 C201.33065931 47.54586021 202.65503853 45.47717378 203.97973633 43.40869141 C207.06833503 38.58529622 210.15436703 33.76033331 213.23013306 28.92874146 C214.30962883 27.23330077 215.39003163 25.53844149 216.47070312 23.84375 C217.81885156 21.72900736 219.16533466 19.61320169 220.50976562 17.49609375 C224.51708697 11.21502581 228.67478624 5.06660918 233 -1 C269.35620688 6.14330164 312.53787537 20.45323789 334.4140625 52.390625 C341.42164557 63.92034296 342.72591178 76.24914812 340.38671875 89.46484375 C334.20489558 110.18892937 314.90101313 123.25641912 296.84863281 133.02246094 C285.95958807 138.78048196 274.71996035 143.24134365 263 147 C261.6994165 147.41765625 261.6994165 147.41765625 260.37255859 147.84375 C235.1648452 155.81484977 209.21719595 160.77365554 183 164 C181.82679199 164.15098145 180.65358398 164.30196289 179.44482422 164.45751953 C137.0156037 169.69409088 91.38141168 169.53740561 49 164 C47.62810734 163.82654231 46.25619944 163.65320519 44.88427734 163.47998047 C-5.17717142 157.05697196 -67.00360838 145.87661779 -100.87109375 104.7265625 C-108.86027357 93.68914199 -110.4453928 81.25206963 -109 68 C-105.46748388 50.81817603 -91.93076052 37.94243896 -77.93359375 28.50390625 C-58.78308533 16.08156124 -37.47981131 8.70862245 -15.6875 2.375 C-14.47070557 2.01970215 -13.25391113 1.6644043 -12.00024414 1.29833984 C-10.30436157 0.82195068 -10.30436157 0.82195068 -8.57421875 0.3359375 C-7.56963623 0.05282715 -6.56505371 -0.2302832 -5.5300293 -0.52197266 C-3 -1 -3 -1 0 0 Z " fill="white" transform="translate(140,345)"/>
</svg>
