<?xml version="1.0" encoding="iso-8859-1"?>
<!-- Uploaded to: SVG Repo, www.svgrepo.com, Generator: SVG Repo Mixer Tools -->
<!DOCTYPE svg PUBLIC "-//W3C//DTD SVG 1.1//EN" "http://www.w3.org/Graphics/SVG/1.1/DTD/svg11.dtd">
<svg fill="white" height="800px" width="800px" version="1.1" id="Capa_1" xmlns="http://www.w3.org/2000/svg" xmlns:xlink="http://www.w3.org/1999/xlink" 
	 viewBox="0 0 198.07 198.07" xml:space="preserve">
<path d="M5.016,0h64v198.07h-64V0z M80.029,9.035h113.025v180H80.029V9.035z M147.035,151.035h-19.333v19.333h19.333V151.035z
	 M147.035,121.035h-19.333v19.333h19.333V121.035z M147.035,91.035h-19.333v19.333h19.333V91.035z M177.035,151.035h-19.333v19.333
	h19.333V151.035z M177.035,121.035h-19.333v19.333h19.333V121.035z M177.035,91.035h-19.333v19.333h19.333V91.035z M97.702,61.036
	h79.333V26.702H97.702V61.036z M97.702,110.368h19.333V91.035H97.702V110.368z M97.702,140.368h19.333v-19.333H97.702V140.368z
	 M97.702,170.368h19.333v-19.333H97.702V170.368z"/>
</svg>